<mxfile host="app.diagrams.net" modified="2020-10-28T02:01:49.714Z" agent="5.0 (Windows NT 10.0; Win64; x64) AppleWebKit/537.36 (KHTML, like Gecko) Chrome/86.0.4240.75 Safari/537.36" etag="qZO7RagKnngCMjVTVCKg" version="13.8.5" type="github">
  <diagram id="-HzxoXXX6ZfSWINrwd7V" name="Page-1">
    <mxGraphModel dx="1422" dy="762" grid="1" gridSize="10" guides="1" tooltips="1" connect="1" arrows="1" fold="1" page="1" pageScale="1" pageWidth="850" pageHeight="1100" math="0" shadow="0">
      <root>
        <mxCell id="0" />
        <mxCell id="1" parent="0" />
        <mxCell id="_l6eRDVre9Wd-PLUxZ_N-18" value="" style="shape=card;whiteSpace=wrap;html=1;strokeWidth=2;" parent="1" vertex="1">
          <mxGeometry x="280" y="210" width="560" height="590" as="geometry" />
        </mxCell>
        <mxCell id="_l6eRDVre9Wd-PLUxZ_N-1" value="mes" style="ellipse;shape=cloud;whiteSpace=wrap;html=1;gradientColor=#7ea6e0;fillColor=#dae8fc;strokeColor=#6c8ebf;" parent="1" vertex="1">
          <mxGeometry x="480" y="30" width="120" height="80" as="geometry" />
        </mxCell>
        <mxCell id="_l6eRDVre9Wd-PLUxZ_N-2" value="" style="shape=flexArrow;endArrow=classic;html=1;width=10;endSize=9.67;exitX=0.5;exitY=1;exitDx=0;exitDy=0;exitPerimeter=0;" parent="1" source="_l6eRDVre9Wd-PLUxZ_N-1" edge="1">
          <mxGeometry width="50" height="50" relative="1" as="geometry">
            <mxPoint x="490" y="150" as="sourcePoint" />
            <mxPoint x="540" y="200" as="targetPoint" />
          </mxGeometry>
        </mxCell>
        <mxCell id="_l6eRDVre9Wd-PLUxZ_N-3" value="制订单" style="text;html=1;align=center;verticalAlign=middle;resizable=0;points=[];autosize=1;" parent="1" vertex="1">
          <mxGeometry x="550" y="130" width="50" height="20" as="geometry" />
        </mxCell>
        <mxCell id="_l6eRDVre9Wd-PLUxZ_N-6" value="设备初始化" style="rhombus;whiteSpace=wrap;html=1;" parent="1" vertex="1">
          <mxGeometry x="360" y="340" width="80" height="80" as="geometry" />
        </mxCell>
        <mxCell id="_l6eRDVre9Wd-PLUxZ_N-9" value="1.设备初始化，根据制订单打开或关闭相应设备。" style="rounded=1;whiteSpace=wrap;html=1;" parent="1" vertex="1">
          <mxGeometry x="600" y="300" width="120" height="60" as="geometry" />
        </mxCell>
        <mxCell id="_l6eRDVre9Wd-PLUxZ_N-11" value="" style="endArrow=classic;html=1;exitX=0.5;exitY=1;exitDx=0;exitDy=0;" parent="1" source="_l6eRDVre9Wd-PLUxZ_N-6" edge="1">
          <mxGeometry width="50" height="50" relative="1" as="geometry">
            <mxPoint x="400" y="570" as="sourcePoint" />
            <mxPoint x="400" y="450" as="targetPoint" />
          </mxGeometry>
        </mxCell>
        <mxCell id="_l6eRDVre9Wd-PLUxZ_N-12" value="" style="endArrow=classic;html=1;exitX=1;exitY=0.5;exitDx=0;exitDy=0;" parent="1" source="_l6eRDVre9Wd-PLUxZ_N-6" edge="1">
          <mxGeometry width="50" height="50" relative="1" as="geometry">
            <mxPoint x="400" y="570" as="sourcePoint" />
            <mxPoint x="480" y="380" as="targetPoint" />
          </mxGeometry>
        </mxCell>
        <mxCell id="_l6eRDVre9Wd-PLUxZ_N-13" value="成功" style="text;html=1;align=center;verticalAlign=middle;resizable=0;points=[];autosize=1;" parent="1" vertex="1">
          <mxGeometry x="400" y="420" width="40" height="20" as="geometry" />
        </mxCell>
        <mxCell id="_l6eRDVre9Wd-PLUxZ_N-14" value="失败" style="text;html=1;align=center;verticalAlign=middle;resizable=0;points=[];autosize=1;" parent="1" vertex="1">
          <mxGeometry x="430" y="360" width="40" height="20" as="geometry" />
        </mxCell>
        <mxCell id="_l6eRDVre9Wd-PLUxZ_N-15" value="" style="curved=1;endArrow=classic;html=1;entryX=0;entryY=0.5;entryDx=0;entryDy=0;" parent="1" source="_l6eRDVre9Wd-PLUxZ_N-6" target="_l6eRDVre9Wd-PLUxZ_N-9" edge="1">
          <mxGeometry width="50" height="50" relative="1" as="geometry">
            <mxPoint x="470" y="330" as="sourcePoint" />
            <mxPoint x="520" y="280" as="targetPoint" />
            <Array as="points">
              <mxPoint x="500" y="320" />
              <mxPoint x="530" y="370" />
            </Array>
          </mxGeometry>
        </mxCell>
        <mxCell id="_l6eRDVre9Wd-PLUxZ_N-17" value="？" style="rounded=0;whiteSpace=wrap;html=1;" parent="1" vertex="1">
          <mxGeometry x="480" y="365" width="70" height="30" as="geometry" />
        </mxCell>
        <mxCell id="_l6eRDVre9Wd-PLUxZ_N-19" value="&lt;font style=&quot;font-size: 15px&quot; face=&quot;Lucida Console&quot;&gt;auto-easycare&lt;/font&gt;" style="rounded=0;whiteSpace=wrap;html=1;strokeColor=none;" parent="1" vertex="1">
          <mxGeometry x="440" y="220" width="180" height="60" as="geometry" />
        </mxCell>
        <mxCell id="_l6eRDVre9Wd-PLUxZ_N-20" value="开始" style="rounded=1;whiteSpace=wrap;html=1;strokeColor=#000000;strokeWidth=2;" parent="1" vertex="1">
          <mxGeometry x="350" y="280" width="100" height="30" as="geometry" />
        </mxCell>
        <mxCell id="_l6eRDVre9Wd-PLUxZ_N-21" value="" style="endArrow=classic;html=1;exitX=0.5;exitY=1;exitDx=0;exitDy=0;entryX=0.5;entryY=0;entryDx=0;entryDy=0;" parent="1" source="_l6eRDVre9Wd-PLUxZ_N-20" target="_l6eRDVre9Wd-PLUxZ_N-6" edge="1">
          <mxGeometry width="50" height="50" relative="1" as="geometry">
            <mxPoint x="400" y="570" as="sourcePoint" />
            <mxPoint x="450" y="520" as="targetPoint" />
          </mxGeometry>
        </mxCell>
        <mxCell id="_l6eRDVre9Wd-PLUxZ_N-23" value="" style="shape=table;html=1;whiteSpace=wrap;startSize=0;container=1;collapsible=0;childLayout=tableLayout;strokeColor=#000000;strokeWidth=2;" parent="1" vertex="1">
          <mxGeometry x="70" y="210" width="50" height="568.0000000000002" as="geometry" />
        </mxCell>
        <mxCell id="_l6eRDVre9Wd-PLUxZ_N-79" style="shape=partialRectangle;html=1;whiteSpace=wrap;collapsible=0;dropTarget=0;pointerEvents=0;fillColor=#dae8fc;top=0;left=0;bottom=0;right=0;points=[[0,0.5],[1,0.5]];portConstraint=eastwest;strokeColor=#6c8ebf;" parent="_l6eRDVre9Wd-PLUxZ_N-23" vertex="1">
          <mxGeometry width="50" height="29" as="geometry" />
        </mxCell>
        <mxCell id="_l6eRDVre9Wd-PLUxZ_N-80" value="设备E1" style="shape=partialRectangle;html=1;whiteSpace=wrap;connectable=0;fillColor=#dae8fc;top=0;left=0;bottom=0;right=0;overflow=hidden;strokeColor=#6c8ebf;" parent="_l6eRDVre9Wd-PLUxZ_N-79" vertex="1">
          <mxGeometry width="50" height="29" as="geometry" />
        </mxCell>
        <mxCell id="_l6eRDVre9Wd-PLUxZ_N-77" style="shape=partialRectangle;html=1;whiteSpace=wrap;collapsible=0;dropTarget=0;pointerEvents=0;fillColor=#dae8fc;top=0;left=0;bottom=0;right=0;points=[[0,0.5],[1,0.5]];portConstraint=eastwest;strokeColor=#6c8ebf;" parent="_l6eRDVre9Wd-PLUxZ_N-23" vertex="1">
          <mxGeometry y="29" width="50" height="30" as="geometry" />
        </mxCell>
        <mxCell id="_l6eRDVre9Wd-PLUxZ_N-78" value="设备E2" style="shape=partialRectangle;html=1;whiteSpace=wrap;connectable=0;fillColor=#dae8fc;top=0;left=0;bottom=0;right=0;overflow=hidden;strokeColor=#6c8ebf;" parent="_l6eRDVre9Wd-PLUxZ_N-77" vertex="1">
          <mxGeometry width="50" height="30" as="geometry" />
        </mxCell>
        <mxCell id="_l6eRDVre9Wd-PLUxZ_N-63" style="shape=partialRectangle;html=1;whiteSpace=wrap;collapsible=0;dropTarget=0;pointerEvents=0;fillColor=#dae8fc;top=0;left=0;bottom=0;right=0;points=[[0,0.5],[1,0.5]];portConstraint=eastwest;strokeColor=#6c8ebf;" parent="_l6eRDVre9Wd-PLUxZ_N-23" vertex="1">
          <mxGeometry y="59" width="50" height="29" as="geometry" />
        </mxCell>
        <mxCell id="_l6eRDVre9Wd-PLUxZ_N-64" style="shape=partialRectangle;html=1;whiteSpace=wrap;connectable=0;fillColor=#dae8fc;top=0;left=0;bottom=0;right=0;overflow=hidden;strokeColor=#6c8ebf;" parent="_l6eRDVre9Wd-PLUxZ_N-63" vertex="1">
          <mxGeometry width="50" height="29" as="geometry" />
        </mxCell>
        <mxCell id="_l6eRDVre9Wd-PLUxZ_N-61" style="shape=partialRectangle;html=1;whiteSpace=wrap;collapsible=0;dropTarget=0;pointerEvents=0;fillColor=#dae8fc;top=0;left=0;bottom=0;right=0;points=[[0,0.5],[1,0.5]];portConstraint=eastwest;strokeColor=#6c8ebf;" parent="_l6eRDVre9Wd-PLUxZ_N-23" vertex="1">
          <mxGeometry y="88" width="50" height="30" as="geometry" />
        </mxCell>
        <mxCell id="_l6eRDVre9Wd-PLUxZ_N-62" style="shape=partialRectangle;html=1;whiteSpace=wrap;connectable=0;fillColor=#dae8fc;top=0;left=0;bottom=0;right=0;overflow=hidden;strokeColor=#6c8ebf;" parent="_l6eRDVre9Wd-PLUxZ_N-61" vertex="1">
          <mxGeometry width="50" height="30" as="geometry" />
        </mxCell>
        <mxCell id="_l6eRDVre9Wd-PLUxZ_N-59" style="shape=partialRectangle;html=1;whiteSpace=wrap;collapsible=0;dropTarget=0;pointerEvents=0;fillColor=#dae8fc;top=0;left=0;bottom=0;right=0;points=[[0,0.5],[1,0.5]];portConstraint=eastwest;strokeColor=#6c8ebf;" parent="_l6eRDVre9Wd-PLUxZ_N-23" vertex="1">
          <mxGeometry y="118" width="50" height="29" as="geometry" />
        </mxCell>
        <mxCell id="_l6eRDVre9Wd-PLUxZ_N-60" style="shape=partialRectangle;html=1;whiteSpace=wrap;connectable=0;fillColor=#dae8fc;top=0;left=0;bottom=0;right=0;overflow=hidden;strokeColor=#6c8ebf;" parent="_l6eRDVre9Wd-PLUxZ_N-59" vertex="1">
          <mxGeometry width="50" height="29" as="geometry" />
        </mxCell>
        <mxCell id="_l6eRDVre9Wd-PLUxZ_N-57" style="shape=partialRectangle;html=1;whiteSpace=wrap;collapsible=0;dropTarget=0;pointerEvents=0;fillColor=#dae8fc;top=0;left=0;bottom=0;right=0;points=[[0,0.5],[1,0.5]];portConstraint=eastwest;strokeColor=#6c8ebf;" parent="_l6eRDVre9Wd-PLUxZ_N-23" vertex="1">
          <mxGeometry y="147" width="50" height="30" as="geometry" />
        </mxCell>
        <mxCell id="_l6eRDVre9Wd-PLUxZ_N-58" style="shape=partialRectangle;html=1;whiteSpace=wrap;connectable=0;fillColor=#dae8fc;top=0;left=0;bottom=0;right=0;overflow=hidden;strokeColor=#6c8ebf;" parent="_l6eRDVre9Wd-PLUxZ_N-57" vertex="1">
          <mxGeometry width="50" height="30" as="geometry" />
        </mxCell>
        <mxCell id="_l6eRDVre9Wd-PLUxZ_N-55" style="shape=partialRectangle;html=1;whiteSpace=wrap;collapsible=0;dropTarget=0;pointerEvents=0;fillColor=#d5e8d4;top=0;left=0;bottom=0;right=0;points=[[0,0.5],[1,0.5]];portConstraint=eastwest;strokeColor=#82b366;" parent="_l6eRDVre9Wd-PLUxZ_N-23" vertex="1">
          <mxGeometry y="177" width="50" height="29" as="geometry" />
        </mxCell>
        <mxCell id="_l6eRDVre9Wd-PLUxZ_N-56" value="设备E5" style="shape=partialRectangle;html=1;whiteSpace=wrap;connectable=0;fillColor=#d5e8d4;top=0;left=0;bottom=0;right=0;overflow=hidden;strokeColor=#82b366;" parent="_l6eRDVre9Wd-PLUxZ_N-55" vertex="1">
          <mxGeometry width="50" height="29" as="geometry" />
        </mxCell>
        <mxCell id="_l6eRDVre9Wd-PLUxZ_N-53" style="shape=partialRectangle;html=1;whiteSpace=wrap;collapsible=0;dropTarget=0;pointerEvents=0;fillColor=#d5e8d4;top=0;left=0;bottom=0;right=0;points=[[0,0.5],[1,0.5]];portConstraint=eastwest;strokeColor=#82b366;" parent="_l6eRDVre9Wd-PLUxZ_N-23" vertex="1">
          <mxGeometry y="206" width="50" height="30" as="geometry" />
        </mxCell>
        <mxCell id="_l6eRDVre9Wd-PLUxZ_N-54" value="设备E6" style="shape=partialRectangle;html=1;whiteSpace=wrap;connectable=0;fillColor=#d5e8d4;top=0;left=0;bottom=0;right=0;overflow=hidden;strokeColor=#82b366;" parent="_l6eRDVre9Wd-PLUxZ_N-53" vertex="1">
          <mxGeometry width="50" height="30" as="geometry" />
        </mxCell>
        <mxCell id="_l6eRDVre9Wd-PLUxZ_N-51" style="shape=partialRectangle;html=1;whiteSpace=wrap;collapsible=0;dropTarget=0;pointerEvents=0;fillColor=#d5e8d4;top=0;left=0;bottom=0;right=0;points=[[0,0.5],[1,0.5]];portConstraint=eastwest;strokeColor=#82b366;" parent="_l6eRDVre9Wd-PLUxZ_N-23" vertex="1">
          <mxGeometry y="236" width="50" height="29" as="geometry" />
        </mxCell>
        <mxCell id="_l6eRDVre9Wd-PLUxZ_N-52" style="shape=partialRectangle;html=1;whiteSpace=wrap;connectable=0;fillColor=#d5e8d4;top=0;left=0;bottom=0;right=0;overflow=hidden;strokeColor=#82b366;" parent="_l6eRDVre9Wd-PLUxZ_N-51" vertex="1">
          <mxGeometry width="50" height="29" as="geometry" />
        </mxCell>
        <mxCell id="_l6eRDVre9Wd-PLUxZ_N-65" style="shape=partialRectangle;html=1;whiteSpace=wrap;collapsible=0;dropTarget=0;pointerEvents=0;fillColor=#d5e8d4;top=0;left=0;bottom=0;right=0;points=[[0,0.5],[1,0.5]];portConstraint=eastwest;strokeColor=#82b366;" parent="_l6eRDVre9Wd-PLUxZ_N-23" vertex="1">
          <mxGeometry y="265" width="50" height="30" as="geometry" />
        </mxCell>
        <mxCell id="_l6eRDVre9Wd-PLUxZ_N-66" style="shape=partialRectangle;html=1;whiteSpace=wrap;connectable=0;fillColor=#d5e8d4;top=0;left=0;bottom=0;right=0;overflow=hidden;strokeColor=#82b366;" parent="_l6eRDVre9Wd-PLUxZ_N-65" vertex="1">
          <mxGeometry width="50" height="30" as="geometry" />
        </mxCell>
        <mxCell id="_l6eRDVre9Wd-PLUxZ_N-67" style="shape=partialRectangle;html=1;whiteSpace=wrap;collapsible=0;dropTarget=0;pointerEvents=0;fillColor=#d5e8d4;top=0;left=0;bottom=0;right=0;points=[[0,0.5],[1,0.5]];portConstraint=eastwest;strokeColor=#82b366;" parent="_l6eRDVre9Wd-PLUxZ_N-23" vertex="1">
          <mxGeometry y="295" width="50" height="29" as="geometry" />
        </mxCell>
        <mxCell id="_l6eRDVre9Wd-PLUxZ_N-68" style="shape=partialRectangle;html=1;whiteSpace=wrap;connectable=0;fillColor=#d5e8d4;top=0;left=0;bottom=0;right=0;overflow=hidden;strokeColor=#82b366;" parent="_l6eRDVre9Wd-PLUxZ_N-67" vertex="1">
          <mxGeometry width="50" height="29" as="geometry" />
        </mxCell>
        <mxCell id="_l6eRDVre9Wd-PLUxZ_N-69" style="shape=partialRectangle;html=1;whiteSpace=wrap;collapsible=0;dropTarget=0;pointerEvents=0;fillColor=#d5e8d4;top=0;left=0;bottom=0;right=0;points=[[0,0.5],[1,0.5]];portConstraint=eastwest;strokeColor=#82b366;" parent="_l6eRDVre9Wd-PLUxZ_N-23" vertex="1">
          <mxGeometry y="324" width="50" height="30" as="geometry" />
        </mxCell>
        <mxCell id="_l6eRDVre9Wd-PLUxZ_N-70" style="shape=partialRectangle;html=1;whiteSpace=wrap;connectable=0;fillColor=#d5e8d4;top=0;left=0;bottom=0;right=0;overflow=hidden;strokeColor=#82b366;" parent="_l6eRDVre9Wd-PLUxZ_N-69" vertex="1">
          <mxGeometry width="50" height="30" as="geometry" />
        </mxCell>
        <mxCell id="_l6eRDVre9Wd-PLUxZ_N-71" style="shape=partialRectangle;html=1;whiteSpace=wrap;collapsible=0;dropTarget=0;pointerEvents=0;fillColor=#d5e8d4;top=0;left=0;bottom=0;right=0;points=[[0,0.5],[1,0.5]];portConstraint=eastwest;strokeColor=#82b366;" parent="_l6eRDVre9Wd-PLUxZ_N-23" vertex="1">
          <mxGeometry y="354" width="50" height="29" as="geometry" />
        </mxCell>
        <mxCell id="_l6eRDVre9Wd-PLUxZ_N-72" style="shape=partialRectangle;html=1;whiteSpace=wrap;connectable=0;fillColor=#d5e8d4;top=0;left=0;bottom=0;right=0;overflow=hidden;strokeColor=#82b366;" parent="_l6eRDVre9Wd-PLUxZ_N-71" vertex="1">
          <mxGeometry width="50" height="29" as="geometry" />
        </mxCell>
        <mxCell id="_l6eRDVre9Wd-PLUxZ_N-73" style="shape=partialRectangle;html=1;whiteSpace=wrap;collapsible=0;dropTarget=0;pointerEvents=0;fillColor=#d5e8d4;top=0;left=0;bottom=0;right=0;points=[[0,0.5],[1,0.5]];portConstraint=eastwest;strokeColor=#82b366;" parent="_l6eRDVre9Wd-PLUxZ_N-23" vertex="1">
          <mxGeometry y="383" width="50" height="30" as="geometry" />
        </mxCell>
        <mxCell id="_l6eRDVre9Wd-PLUxZ_N-74" style="shape=partialRectangle;html=1;whiteSpace=wrap;connectable=0;fillColor=#d5e8d4;top=0;left=0;bottom=0;right=0;overflow=hidden;strokeColor=#82b366;" parent="_l6eRDVre9Wd-PLUxZ_N-73" vertex="1">
          <mxGeometry width="50" height="30" as="geometry" />
        </mxCell>
        <mxCell id="_l6eRDVre9Wd-PLUxZ_N-75" style="shape=partialRectangle;html=1;whiteSpace=wrap;collapsible=0;dropTarget=0;pointerEvents=0;fillColor=#ffe6cc;top=0;left=0;bottom=0;right=0;points=[[0,0.5],[1,0.5]];portConstraint=eastwest;strokeColor=#d79b00;" parent="_l6eRDVre9Wd-PLUxZ_N-23" vertex="1">
          <mxGeometry y="413" width="50" height="37" as="geometry" />
        </mxCell>
        <mxCell id="_l6eRDVre9Wd-PLUxZ_N-76" value="设备E9" style="shape=partialRectangle;html=1;whiteSpace=wrap;connectable=0;fillColor=#ffe6cc;top=0;left=0;bottom=0;right=0;overflow=hidden;strokeColor=#d79b00;" parent="_l6eRDVre9Wd-PLUxZ_N-75" vertex="1">
          <mxGeometry width="50" height="37" as="geometry" />
        </mxCell>
        <mxCell id="_l6eRDVre9Wd-PLUxZ_N-49" style="shape=partialRectangle;html=1;whiteSpace=wrap;collapsible=0;dropTarget=0;pointerEvents=0;fillColor=#ffe6cc;top=0;left=0;bottom=0;right=0;points=[[0,0.5],[1,0.5]];portConstraint=eastwest;strokeColor=#d79b00;" parent="_l6eRDVre9Wd-PLUxZ_N-23" vertex="1">
          <mxGeometry y="450" width="50" height="30" as="geometry" />
        </mxCell>
        <mxCell id="_l6eRDVre9Wd-PLUxZ_N-50" value="设备E10" style="shape=partialRectangle;html=1;whiteSpace=wrap;connectable=0;fillColor=#ffe6cc;top=0;left=0;bottom=0;right=0;overflow=hidden;strokeColor=#d79b00;" parent="_l6eRDVre9Wd-PLUxZ_N-49" vertex="1">
          <mxGeometry width="50" height="30" as="geometry" />
        </mxCell>
        <mxCell id="_l6eRDVre9Wd-PLUxZ_N-24" value="" style="shape=partialRectangle;html=1;whiteSpace=wrap;collapsible=0;dropTarget=0;pointerEvents=0;fillColor=#ffe6cc;top=0;left=0;bottom=0;right=0;points=[[0,0.5],[1,0.5]];portConstraint=eastwest;strokeColor=#d79b00;" parent="_l6eRDVre9Wd-PLUxZ_N-23" vertex="1">
          <mxGeometry y="480" width="50" height="29" as="geometry" />
        </mxCell>
        <mxCell id="_l6eRDVre9Wd-PLUxZ_N-25" value="" style="shape=partialRectangle;html=1;whiteSpace=wrap;connectable=0;fillColor=#ffe6cc;top=0;left=0;bottom=0;right=0;overflow=hidden;strokeColor=#d79b00;" parent="_l6eRDVre9Wd-PLUxZ_N-24" vertex="1">
          <mxGeometry width="50" height="29" as="geometry" />
        </mxCell>
        <mxCell id="_l6eRDVre9Wd-PLUxZ_N-28" value="" style="shape=partialRectangle;html=1;whiteSpace=wrap;collapsible=0;dropTarget=0;pointerEvents=0;fillColor=#ffe6cc;top=0;left=0;bottom=0;right=0;points=[[0,0.5],[1,0.5]];portConstraint=eastwest;strokeColor=#d79b00;" parent="_l6eRDVre9Wd-PLUxZ_N-23" vertex="1">
          <mxGeometry y="509" width="50" height="30" as="geometry" />
        </mxCell>
        <mxCell id="_l6eRDVre9Wd-PLUxZ_N-29" value="" style="shape=partialRectangle;html=1;whiteSpace=wrap;connectable=0;fillColor=#ffe6cc;top=0;left=0;bottom=0;right=0;overflow=hidden;strokeColor=#d79b00;" parent="_l6eRDVre9Wd-PLUxZ_N-28" vertex="1">
          <mxGeometry width="50" height="30" as="geometry" />
        </mxCell>
        <mxCell id="_l6eRDVre9Wd-PLUxZ_N-32" value="" style="shape=partialRectangle;html=1;whiteSpace=wrap;collapsible=0;dropTarget=0;pointerEvents=0;fillColor=#ffe6cc;top=0;left=0;bottom=0;right=0;points=[[0,0.5],[1,0.5]];portConstraint=eastwest;strokeColor=#d79b00;" parent="_l6eRDVre9Wd-PLUxZ_N-23" vertex="1">
          <mxGeometry y="539" width="50" height="29" as="geometry" />
        </mxCell>
        <mxCell id="_l6eRDVre9Wd-PLUxZ_N-33" value="" style="shape=partialRectangle;html=1;whiteSpace=wrap;connectable=0;fillColor=#ffe6cc;top=0;left=0;bottom=0;right=0;overflow=hidden;strokeColor=#d79b00;" parent="_l6eRDVre9Wd-PLUxZ_N-32" vertex="1">
          <mxGeometry width="50" height="29" as="geometry" />
        </mxCell>
        <mxCell id="_l6eRDVre9Wd-PLUxZ_N-81" value="灌装包装线" style="text;html=1;align=center;verticalAlign=middle;resizable=0;points=[];autosize=1;" parent="1" vertex="1">
          <mxGeometry x="60" y="150" width="80" height="20" as="geometry" />
        </mxCell>
        <mxCell id="_l6eRDVre9Wd-PLUxZ_N-82" value="" style="triangle;whiteSpace=wrap;html=1;strokeColor=#996185;strokeWidth=2;direction=west;gradientColor=#d5739d;fillColor=#e6d0de;" parent="1" vertex="1">
          <mxGeometry x="120" y="200" width="30" height="20" as="geometry" />
        </mxCell>
        <mxCell id="_l6eRDVre9Wd-PLUxZ_N-84" value="" style="triangle;whiteSpace=wrap;html=1;strokeColor=#996185;strokeWidth=2;direction=west;gradientColor=#d5739d;fillColor=#e6d0de;" parent="1" vertex="1">
          <mxGeometry x="120" y="375" width="30" height="20" as="geometry" />
        </mxCell>
        <mxCell id="_l6eRDVre9Wd-PLUxZ_N-92" value="" style="triangle;whiteSpace=wrap;html=1;strokeColor=#996185;strokeWidth=2;direction=west;gradientColor=#d5739d;fillColor=#e6d0de;" parent="1" vertex="1">
          <mxGeometry x="120" y="610" width="30" height="20" as="geometry" />
        </mxCell>
        <mxCell id="_l6eRDVre9Wd-PLUxZ_N-94" value="1.startpoint扫码器S1" style="rounded=1;whiteSpace=wrap;html=1;strokeColor=#36393d;strokeWidth=2;fillColor=#cce5ff;" parent="1" vertex="1">
          <mxGeometry x="150" y="195" width="110" height="30" as="geometry" />
        </mxCell>
        <mxCell id="_l6eRDVre9Wd-PLUxZ_N-95" value="2.个性化加注扫码器S2" style="rounded=1;whiteSpace=wrap;html=1;strokeColor=#36393d;strokeWidth=2;fillColor=#cce5ff;" parent="1" vertex="1">
          <mxGeometry x="150" y="365" width="100" height="40" as="geometry" />
        </mxCell>
        <mxCell id="_l6eRDVre9Wd-PLUxZ_N-96" value="3.个性化打印扫码器S3" style="rounded=1;whiteSpace=wrap;html=1;strokeColor=#36393d;strokeWidth=2;fillColor=#cce5ff;" parent="1" vertex="1">
          <mxGeometry x="150" y="600" width="110" height="40" as="geometry" />
        </mxCell>
        <mxCell id="_l6eRDVre9Wd-PLUxZ_N-100" value="" style="rounded=1;whiteSpace=wrap;html=1;strokeColor=#000000;strokeWidth=2;" parent="1" vertex="1">
          <mxGeometry x="300" y="450" width="520" height="330" as="geometry" />
        </mxCell>
        <mxCell id="_l6eRDVre9Wd-PLUxZ_N-101" value="执行模块" style="rounded=0;whiteSpace=wrap;html=1;strokeColor=#000000;strokeWidth=1;" parent="1" vertex="1">
          <mxGeometry x="465" y="450" width="130" height="20" as="geometry" />
        </mxCell>
        <mxCell id="_l6eRDVre9Wd-PLUxZ_N-170" value="" style="shape=table;html=1;whiteSpace=wrap;startSize=0;container=1;collapsible=0;childLayout=tableLayout;strokeColor=#000000;strokeWidth=1;" parent="1" vertex="1">
          <mxGeometry x="600" y="599" width="40" height="64" as="geometry" />
        </mxCell>
        <mxCell id="_l6eRDVre9Wd-PLUxZ_N-171" style="shape=partialRectangle;html=1;whiteSpace=wrap;collapsible=0;dropTarget=0;pointerEvents=0;fillColor=none;top=0;left=0;bottom=0;right=0;points=[[0,0.5],[1,0.5]];portConstraint=eastwest;" parent="_l6eRDVre9Wd-PLUxZ_N-170" vertex="1">
          <mxGeometry width="40" height="11" as="geometry" />
        </mxCell>
        <mxCell id="_l6eRDVre9Wd-PLUxZ_N-172" style="shape=partialRectangle;html=1;whiteSpace=wrap;connectable=0;fillColor=none;top=0;left=0;bottom=0;right=0;overflow=hidden;" parent="_l6eRDVre9Wd-PLUxZ_N-171" vertex="1">
          <mxGeometry width="40" height="11" as="geometry" />
        </mxCell>
        <mxCell id="_l6eRDVre9Wd-PLUxZ_N-173" style="shape=partialRectangle;html=1;whiteSpace=wrap;collapsible=0;dropTarget=0;pointerEvents=0;fillColor=none;top=0;left=0;bottom=0;right=0;points=[[0,0.5],[1,0.5]];portConstraint=eastwest;" parent="_l6eRDVre9Wd-PLUxZ_N-170" vertex="1">
          <mxGeometry y="11" width="40" height="10" as="geometry" />
        </mxCell>
        <mxCell id="_l6eRDVre9Wd-PLUxZ_N-174" style="shape=partialRectangle;html=1;whiteSpace=wrap;connectable=0;fillColor=none;top=0;left=0;bottom=0;right=0;overflow=hidden;" parent="_l6eRDVre9Wd-PLUxZ_N-173" vertex="1">
          <mxGeometry width="40" height="10" as="geometry" />
        </mxCell>
        <mxCell id="_l6eRDVre9Wd-PLUxZ_N-175" style="shape=partialRectangle;html=1;whiteSpace=wrap;collapsible=0;dropTarget=0;pointerEvents=0;fillColor=none;top=0;left=0;bottom=0;right=0;points=[[0,0.5],[1,0.5]];portConstraint=eastwest;" parent="_l6eRDVre9Wd-PLUxZ_N-170" vertex="1">
          <mxGeometry y="21" width="40" height="11" as="geometry" />
        </mxCell>
        <mxCell id="_l6eRDVre9Wd-PLUxZ_N-176" style="shape=partialRectangle;html=1;whiteSpace=wrap;connectable=0;fillColor=none;top=0;left=0;bottom=0;right=0;overflow=hidden;" parent="_l6eRDVre9Wd-PLUxZ_N-175" vertex="1">
          <mxGeometry width="40" height="11" as="geometry" />
        </mxCell>
        <mxCell id="_l6eRDVre9Wd-PLUxZ_N-177" style="shape=partialRectangle;html=1;whiteSpace=wrap;collapsible=0;dropTarget=0;pointerEvents=0;fillColor=none;top=0;left=0;bottom=0;right=0;points=[[0,0.5],[1,0.5]];portConstraint=eastwest;" parent="_l6eRDVre9Wd-PLUxZ_N-170" vertex="1">
          <mxGeometry y="32" width="40" height="11" as="geometry" />
        </mxCell>
        <mxCell id="_l6eRDVre9Wd-PLUxZ_N-178" style="shape=partialRectangle;html=1;whiteSpace=wrap;connectable=0;fillColor=none;top=0;left=0;bottom=0;right=0;overflow=hidden;" parent="_l6eRDVre9Wd-PLUxZ_N-177" vertex="1">
          <mxGeometry width="40" height="11" as="geometry" />
        </mxCell>
        <mxCell id="_l6eRDVre9Wd-PLUxZ_N-179" style="shape=partialRectangle;html=1;whiteSpace=wrap;collapsible=0;dropTarget=0;pointerEvents=0;fillColor=none;top=0;left=0;bottom=0;right=0;points=[[0,0.5],[1,0.5]];portConstraint=eastwest;" parent="_l6eRDVre9Wd-PLUxZ_N-170" vertex="1">
          <mxGeometry y="43" width="40" height="11" as="geometry" />
        </mxCell>
        <mxCell id="_l6eRDVre9Wd-PLUxZ_N-180" style="shape=partialRectangle;html=1;whiteSpace=wrap;connectable=0;fillColor=none;top=0;left=0;bottom=0;right=0;overflow=hidden;" parent="_l6eRDVre9Wd-PLUxZ_N-179" vertex="1">
          <mxGeometry width="40" height="11" as="geometry" />
        </mxCell>
        <mxCell id="_l6eRDVre9Wd-PLUxZ_N-181" style="shape=partialRectangle;html=1;whiteSpace=wrap;collapsible=0;dropTarget=0;pointerEvents=0;fillColor=none;top=0;left=0;bottom=0;right=0;points=[[0,0.5],[1,0.5]];portConstraint=eastwest;" parent="_l6eRDVre9Wd-PLUxZ_N-170" vertex="1">
          <mxGeometry y="54" width="40" height="10" as="geometry" />
        </mxCell>
        <mxCell id="_l6eRDVre9Wd-PLUxZ_N-182" style="shape=partialRectangle;html=1;whiteSpace=wrap;connectable=0;fillColor=none;top=0;left=0;bottom=0;right=0;overflow=hidden;" parent="_l6eRDVre9Wd-PLUxZ_N-181" vertex="1">
          <mxGeometry width="40" height="10" as="geometry" />
        </mxCell>
        <mxCell id="_l6eRDVre9Wd-PLUxZ_N-201" value="" style="shape=table;html=1;whiteSpace=wrap;startSize=0;container=1;collapsible=0;childLayout=tableLayout;strokeColor=#000000;strokeWidth=1;" parent="1" vertex="1">
          <mxGeometry x="720" y="573" width="40" height="160" as="geometry" />
        </mxCell>
        <mxCell id="_l6eRDVre9Wd-PLUxZ_N-202" style="shape=partialRectangle;html=1;whiteSpace=wrap;collapsible=0;dropTarget=0;pointerEvents=0;fillColor=none;top=0;left=0;bottom=0;right=0;points=[[0,0.5],[1,0.5]];portConstraint=eastwest;" parent="_l6eRDVre9Wd-PLUxZ_N-201" vertex="1">
          <mxGeometry width="40" height="11" as="geometry" />
        </mxCell>
        <mxCell id="_l6eRDVre9Wd-PLUxZ_N-203" style="shape=partialRectangle;html=1;whiteSpace=wrap;connectable=0;fillColor=none;top=0;left=0;bottom=0;right=0;overflow=hidden;" parent="_l6eRDVre9Wd-PLUxZ_N-202" vertex="1">
          <mxGeometry width="40" height="11" as="geometry" />
        </mxCell>
        <mxCell id="_l6eRDVre9Wd-PLUxZ_N-204" style="shape=partialRectangle;html=1;whiteSpace=wrap;collapsible=0;dropTarget=0;pointerEvents=0;fillColor=none;top=0;left=0;bottom=0;right=0;points=[[0,0.5],[1,0.5]];portConstraint=eastwest;" parent="_l6eRDVre9Wd-PLUxZ_N-201" vertex="1">
          <mxGeometry y="11" width="40" height="10" as="geometry" />
        </mxCell>
        <mxCell id="_l6eRDVre9Wd-PLUxZ_N-205" style="shape=partialRectangle;html=1;whiteSpace=wrap;connectable=0;fillColor=none;top=0;left=0;bottom=0;right=0;overflow=hidden;" parent="_l6eRDVre9Wd-PLUxZ_N-204" vertex="1">
          <mxGeometry width="40" height="10" as="geometry" />
        </mxCell>
        <mxCell id="_l6eRDVre9Wd-PLUxZ_N-206" style="shape=partialRectangle;html=1;whiteSpace=wrap;collapsible=0;dropTarget=0;pointerEvents=0;fillColor=none;top=0;left=0;bottom=0;right=0;points=[[0,0.5],[1,0.5]];portConstraint=eastwest;" parent="_l6eRDVre9Wd-PLUxZ_N-201" vertex="1">
          <mxGeometry y="21" width="40" height="11" as="geometry" />
        </mxCell>
        <mxCell id="_l6eRDVre9Wd-PLUxZ_N-207" style="shape=partialRectangle;html=1;whiteSpace=wrap;connectable=0;fillColor=none;top=0;left=0;bottom=0;right=0;overflow=hidden;" parent="_l6eRDVre9Wd-PLUxZ_N-206" vertex="1">
          <mxGeometry width="40" height="11" as="geometry" />
        </mxCell>
        <mxCell id="_l6eRDVre9Wd-PLUxZ_N-208" style="shape=partialRectangle;html=1;whiteSpace=wrap;collapsible=0;dropTarget=0;pointerEvents=0;fillColor=none;top=0;left=0;bottom=0;right=0;points=[[0,0.5],[1,0.5]];portConstraint=eastwest;" parent="_l6eRDVre9Wd-PLUxZ_N-201" vertex="1">
          <mxGeometry y="32" width="40" height="11" as="geometry" />
        </mxCell>
        <mxCell id="_l6eRDVre9Wd-PLUxZ_N-209" style="shape=partialRectangle;html=1;whiteSpace=wrap;connectable=0;fillColor=none;top=0;left=0;bottom=0;right=0;overflow=hidden;" parent="_l6eRDVre9Wd-PLUxZ_N-208" vertex="1">
          <mxGeometry width="40" height="11" as="geometry" />
        </mxCell>
        <mxCell id="_l6eRDVre9Wd-PLUxZ_N-210" style="shape=partialRectangle;html=1;whiteSpace=wrap;collapsible=0;dropTarget=0;pointerEvents=0;fillColor=none;top=0;left=0;bottom=0;right=0;points=[[0,0.5],[1,0.5]];portConstraint=eastwest;" parent="_l6eRDVre9Wd-PLUxZ_N-201" vertex="1">
          <mxGeometry y="43" width="40" height="11" as="geometry" />
        </mxCell>
        <mxCell id="_l6eRDVre9Wd-PLUxZ_N-211" style="shape=partialRectangle;html=1;whiteSpace=wrap;connectable=0;fillColor=none;top=0;left=0;bottom=0;right=0;overflow=hidden;" parent="_l6eRDVre9Wd-PLUxZ_N-210" vertex="1">
          <mxGeometry width="40" height="11" as="geometry" />
        </mxCell>
        <mxCell id="_l6eRDVre9Wd-PLUxZ_N-212" style="shape=partialRectangle;html=1;whiteSpace=wrap;collapsible=0;dropTarget=0;pointerEvents=0;fillColor=none;top=0;left=0;bottom=0;right=0;points=[[0,0.5],[1,0.5]];portConstraint=eastwest;" parent="_l6eRDVre9Wd-PLUxZ_N-201" vertex="1">
          <mxGeometry y="54" width="40" height="10" as="geometry" />
        </mxCell>
        <mxCell id="_l6eRDVre9Wd-PLUxZ_N-213" style="shape=partialRectangle;html=1;whiteSpace=wrap;connectable=0;fillColor=none;top=0;left=0;bottom=0;right=0;overflow=hidden;" parent="_l6eRDVre9Wd-PLUxZ_N-212" vertex="1">
          <mxGeometry width="40" height="10" as="geometry" />
        </mxCell>
        <mxCell id="_l6eRDVre9Wd-PLUxZ_N-214" style="shape=partialRectangle;html=1;whiteSpace=wrap;collapsible=0;dropTarget=0;pointerEvents=0;fillColor=none;top=0;left=0;bottom=0;right=0;points=[[0,0.5],[1,0.5]];portConstraint=eastwest;" parent="_l6eRDVre9Wd-PLUxZ_N-201" vertex="1">
          <mxGeometry y="64" width="40" height="12" as="geometry" />
        </mxCell>
        <mxCell id="_l6eRDVre9Wd-PLUxZ_N-215" style="shape=partialRectangle;html=1;whiteSpace=wrap;connectable=0;fillColor=none;top=0;left=0;bottom=0;right=0;overflow=hidden;" parent="_l6eRDVre9Wd-PLUxZ_N-214" vertex="1">
          <mxGeometry width="40" height="12" as="geometry" />
        </mxCell>
        <mxCell id="_l6eRDVre9Wd-PLUxZ_N-216" style="shape=partialRectangle;html=1;whiteSpace=wrap;collapsible=0;dropTarget=0;pointerEvents=0;fillColor=none;top=0;left=0;bottom=0;right=0;points=[[0,0.5],[1,0.5]];portConstraint=eastwest;" parent="_l6eRDVre9Wd-PLUxZ_N-201" vertex="1">
          <mxGeometry y="76" width="40" height="10" as="geometry" />
        </mxCell>
        <mxCell id="_l6eRDVre9Wd-PLUxZ_N-217" style="shape=partialRectangle;html=1;whiteSpace=wrap;connectable=0;fillColor=none;top=0;left=0;bottom=0;right=0;overflow=hidden;" parent="_l6eRDVre9Wd-PLUxZ_N-216" vertex="1">
          <mxGeometry width="40" height="10" as="geometry" />
        </mxCell>
        <mxCell id="_l6eRDVre9Wd-PLUxZ_N-218" style="shape=partialRectangle;html=1;whiteSpace=wrap;collapsible=0;dropTarget=0;pointerEvents=0;fillColor=#cdeb8b;top=0;left=0;bottom=0;right=0;points=[[0,0.5],[1,0.5]];portConstraint=eastwest;strokeColor=#36393d;" parent="_l6eRDVre9Wd-PLUxZ_N-201" vertex="1">
          <mxGeometry y="86" width="40" height="11" as="geometry" />
        </mxCell>
        <mxCell id="_l6eRDVre9Wd-PLUxZ_N-219" style="shape=partialRectangle;html=1;whiteSpace=wrap;connectable=0;fillColor=#cdeb8b;top=0;left=0;bottom=0;right=0;overflow=hidden;strokeColor=#36393d;" parent="_l6eRDVre9Wd-PLUxZ_N-218" vertex="1">
          <mxGeometry width="40" height="11" as="geometry" />
        </mxCell>
        <mxCell id="_l6eRDVre9Wd-PLUxZ_N-220" style="shape=partialRectangle;html=1;whiteSpace=wrap;collapsible=0;dropTarget=0;pointerEvents=0;fillColor=#cdeb8b;top=0;left=0;bottom=0;right=0;points=[[0,0.5],[1,0.5]];portConstraint=eastwest;strokeColor=#36393d;" parent="_l6eRDVre9Wd-PLUxZ_N-201" vertex="1">
          <mxGeometry y="97" width="40" height="11" as="geometry" />
        </mxCell>
        <mxCell id="_l6eRDVre9Wd-PLUxZ_N-221" style="shape=partialRectangle;html=1;whiteSpace=wrap;connectable=0;fillColor=#cdeb8b;top=0;left=0;bottom=0;right=0;overflow=hidden;strokeColor=#36393d;" parent="_l6eRDVre9Wd-PLUxZ_N-220" vertex="1">
          <mxGeometry width="40" height="11" as="geometry" />
        </mxCell>
        <mxCell id="_l6eRDVre9Wd-PLUxZ_N-222" style="shape=partialRectangle;html=1;whiteSpace=wrap;collapsible=0;dropTarget=0;pointerEvents=0;fillColor=#cdeb8b;top=0;left=0;bottom=0;right=0;points=[[0,0.5],[1,0.5]];portConstraint=eastwest;strokeColor=#36393d;" parent="_l6eRDVre9Wd-PLUxZ_N-201" vertex="1">
          <mxGeometry y="108" width="40" height="10" as="geometry" />
        </mxCell>
        <mxCell id="_l6eRDVre9Wd-PLUxZ_N-223" style="shape=partialRectangle;html=1;whiteSpace=wrap;connectable=0;fillColor=#cdeb8b;top=0;left=0;bottom=0;right=0;overflow=hidden;strokeColor=#36393d;" parent="_l6eRDVre9Wd-PLUxZ_N-222" vertex="1">
          <mxGeometry width="40" height="10" as="geometry" />
        </mxCell>
        <mxCell id="_l6eRDVre9Wd-PLUxZ_N-224" style="shape=partialRectangle;html=1;whiteSpace=wrap;collapsible=0;dropTarget=0;pointerEvents=0;fillColor=#cdeb8b;top=0;left=0;bottom=0;right=0;points=[[0,0.5],[1,0.5]];portConstraint=eastwest;strokeColor=#36393d;" parent="_l6eRDVre9Wd-PLUxZ_N-201" vertex="1">
          <mxGeometry y="118" width="40" height="10" as="geometry" />
        </mxCell>
        <mxCell id="_l6eRDVre9Wd-PLUxZ_N-225" style="shape=partialRectangle;html=1;whiteSpace=wrap;connectable=0;fillColor=#cdeb8b;top=0;left=0;bottom=0;right=0;overflow=hidden;strokeColor=#36393d;" parent="_l6eRDVre9Wd-PLUxZ_N-224" vertex="1">
          <mxGeometry width="40" height="10" as="geometry" />
        </mxCell>
        <mxCell id="_l6eRDVre9Wd-PLUxZ_N-226" value="" style="shape=partialRectangle;html=1;whiteSpace=wrap;collapsible=0;dropTarget=0;pointerEvents=0;fillColor=#cdeb8b;top=0;left=0;bottom=0;right=0;points=[[0,0.5],[1,0.5]];portConstraint=eastwest;strokeColor=#36393d;" parent="_l6eRDVre9Wd-PLUxZ_N-201" vertex="1">
          <mxGeometry y="128" width="40" height="11" as="geometry" />
        </mxCell>
        <mxCell id="_l6eRDVre9Wd-PLUxZ_N-227" value="" style="shape=partialRectangle;html=1;whiteSpace=wrap;connectable=0;fillColor=#cdeb8b;top=0;left=0;bottom=0;right=0;overflow=hidden;strokeColor=#36393d;" parent="_l6eRDVre9Wd-PLUxZ_N-226" vertex="1">
          <mxGeometry width="40" height="11" as="geometry" />
        </mxCell>
        <mxCell id="_l6eRDVre9Wd-PLUxZ_N-228" value="" style="shape=partialRectangle;html=1;whiteSpace=wrap;collapsible=0;dropTarget=0;pointerEvents=0;fillColor=#cdeb8b;top=0;left=0;bottom=0;right=0;points=[[0,0.5],[1,0.5]];portConstraint=eastwest;strokeColor=#36393d;" parent="_l6eRDVre9Wd-PLUxZ_N-201" vertex="1">
          <mxGeometry y="139" width="40" height="10" as="geometry" />
        </mxCell>
        <mxCell id="_l6eRDVre9Wd-PLUxZ_N-229" value="" style="shape=partialRectangle;html=1;whiteSpace=wrap;connectable=0;fillColor=#cdeb8b;top=0;left=0;bottom=0;right=0;overflow=hidden;strokeColor=#36393d;" parent="_l6eRDVre9Wd-PLUxZ_N-228" vertex="1">
          <mxGeometry width="40" height="10" as="geometry" />
        </mxCell>
        <mxCell id="_l6eRDVre9Wd-PLUxZ_N-230" value="" style="shape=partialRectangle;html=1;whiteSpace=wrap;collapsible=0;dropTarget=0;pointerEvents=0;fillColor=#cdeb8b;top=0;left=0;bottom=0;right=0;points=[[0,0.5],[1,0.5]];portConstraint=eastwest;strokeColor=#36393d;" parent="_l6eRDVre9Wd-PLUxZ_N-201" vertex="1">
          <mxGeometry y="149" width="40" height="11" as="geometry" />
        </mxCell>
        <mxCell id="_l6eRDVre9Wd-PLUxZ_N-231" value="" style="shape=partialRectangle;html=1;whiteSpace=wrap;connectable=0;fillColor=#cdeb8b;top=0;left=0;bottom=0;right=0;overflow=hidden;strokeColor=#36393d;" parent="_l6eRDVre9Wd-PLUxZ_N-230" vertex="1">
          <mxGeometry width="40" height="11" as="geometry" />
        </mxCell>
        <mxCell id="_l6eRDVre9Wd-PLUxZ_N-234" value="" style="triangle;whiteSpace=wrap;html=1;strokeColor=#996185;strokeWidth=2;direction=west;gradientColor=#d5739d;fillColor=#e6d0de;" parent="1" vertex="1">
          <mxGeometry x="120" y="760" width="30" height="20" as="geometry" />
        </mxCell>
        <mxCell id="_l6eRDVre9Wd-PLUxZ_N-235" value="4.endpoint扫码器S4" style="rounded=1;whiteSpace=wrap;html=1;strokeColor=#36393d;strokeWidth=2;fillColor=#cce5ff;" parent="1" vertex="1">
          <mxGeometry x="150" y="750" width="110" height="40" as="geometry" />
        </mxCell>
        <mxCell id="_l6eRDVre9Wd-PLUxZ_N-237" value="" style="rounded=0;whiteSpace=wrap;html=1;strokeColor=#000000;strokeWidth=1;" parent="1" vertex="1">
          <mxGeometry x="475" y="543" width="40" height="10" as="geometry" />
        </mxCell>
        <mxCell id="_l6eRDVre9Wd-PLUxZ_N-240" value="" style="rounded=0;whiteSpace=wrap;html=1;strokeColor=#000000;strokeWidth=1;" parent="1" vertex="1">
          <mxGeometry x="600" y="553" width="40" height="10" as="geometry" />
        </mxCell>
        <mxCell id="_l6eRDVre9Wd-PLUxZ_N-253" value="" style="shape=curlyBracket;whiteSpace=wrap;html=1;rounded=1;strokeColor=#6c8ebf;strokeWidth=1;fillColor=#dae8fc;" parent="1" vertex="1">
          <mxGeometry x="50" y="230" width="20" height="145" as="geometry" />
        </mxCell>
        <mxCell id="_l6eRDVre9Wd-PLUxZ_N-255" value="phase1" style="text;html=1;align=center;verticalAlign=middle;resizable=0;points=[];autosize=1;" parent="1" vertex="1">
          <mxGeometry y="292.5" width="50" height="20" as="geometry" />
        </mxCell>
        <mxCell id="_l6eRDVre9Wd-PLUxZ_N-257" value="" style="shape=curlyBracket;whiteSpace=wrap;html=1;rounded=1;strokeColor=#82b366;strokeWidth=1;fillColor=#d5e8d4;" parent="1" vertex="1">
          <mxGeometry x="50" y="405" width="20" height="205" as="geometry" />
        </mxCell>
        <mxCell id="_l6eRDVre9Wd-PLUxZ_N-258" value="phase2" style="text;html=1;align=center;verticalAlign=middle;resizable=0;points=[];autosize=1;" parent="1" vertex="1">
          <mxGeometry y="495" width="50" height="20" as="geometry" />
        </mxCell>
        <mxCell id="_l6eRDVre9Wd-PLUxZ_N-259" value="" style="shape=curlyBracket;whiteSpace=wrap;html=1;rounded=1;strokeColor=#d79b00;strokeWidth=1;fillColor=#ffe6cc;" parent="1" vertex="1">
          <mxGeometry x="50" y="630" width="20" height="120" as="geometry" />
        </mxCell>
        <mxCell id="_l6eRDVre9Wd-PLUxZ_N-260" value="phase3" style="text;html=1;align=center;verticalAlign=middle;resizable=0;points=[];autosize=1;" parent="1" vertex="1">
          <mxGeometry y="680" width="50" height="20" as="geometry" />
        </mxCell>
        <mxCell id="_l6eRDVre9Wd-PLUxZ_N-261" value="剩余任务" style="text;html=1;align=center;verticalAlign=middle;resizable=0;points=[];autosize=1;" parent="1" vertex="1">
          <mxGeometry x="320" y="673" width="60" height="20" as="geometry" />
        </mxCell>
        <mxCell id="_l6eRDVre9Wd-PLUxZ_N-262" value="" style="triangle;whiteSpace=wrap;html=1;strokeColor=#996185;strokeWidth=1;direction=west;gradientColor=#d5739d;fillColor=#e6d0de;" parent="1" vertex="1">
          <mxGeometry x="370" y="653" width="25" height="10" as="geometry" />
        </mxCell>
        <mxCell id="_l6eRDVre9Wd-PLUxZ_N-263" value="" style="triangle;whiteSpace=wrap;html=1;strokeColor=#996185;strokeWidth=1;direction=west;gradientColor=#d5739d;fillColor=#e6d0de;" parent="1" vertex="1">
          <mxGeometry x="517.5" y="653" width="25" height="10" as="geometry" />
        </mxCell>
        <mxCell id="_l6eRDVre9Wd-PLUxZ_N-264" value="" style="triangle;whiteSpace=wrap;html=1;strokeColor=#996185;strokeWidth=1;direction=west;gradientColor=#d5739d;fillColor=#e6d0de;" parent="1" vertex="1">
          <mxGeometry x="640" y="653" width="25" height="10" as="geometry" />
        </mxCell>
        <mxCell id="_l6eRDVre9Wd-PLUxZ_N-267" value="" style="triangle;whiteSpace=wrap;html=1;strokeColor=#996185;strokeWidth=1;direction=west;gradientColor=#d5739d;fillColor=#e6d0de;" parent="1" vertex="1">
          <mxGeometry x="760" y="653" width="25" height="10" as="geometry" />
        </mxCell>
        <mxCell id="_l6eRDVre9Wd-PLUxZ_N-269" value="" style="curved=1;endArrow=classic;html=1;entryX=0.5;entryY=0;entryDx=0;entryDy=0;" parent="1" target="_l6eRDVre9Wd-PLUxZ_N-237" edge="1">
          <mxGeometry width="50" height="50" relative="1" as="geometry">
            <mxPoint x="395" y="656" as="sourcePoint" />
            <mxPoint x="495" y="503" as="targetPoint" />
            <Array as="points">
              <mxPoint x="445" y="656" />
              <mxPoint x="425" y="513" />
            </Array>
          </mxGeometry>
        </mxCell>
        <mxCell id="_l6eRDVre9Wd-PLUxZ_N-270" value="" style="endArrow=classic;html=1;entryX=0.499;entryY=-0.214;entryDx=0;entryDy=0;entryPerimeter=0;exitX=0.5;exitY=1;exitDx=0;exitDy=0;" parent="1" source="_l6eRDVre9Wd-PLUxZ_N-237" edge="1">
          <mxGeometry width="50" height="50" relative="1" as="geometry">
            <mxPoint x="485" y="573" as="sourcePoint" />
            <mxPoint x="495" y="587" as="targetPoint" />
          </mxGeometry>
        </mxCell>
        <mxCell id="_l6eRDVre9Wd-PLUxZ_N-274" value="" style="endArrow=classic;html=1;exitX=0.485;exitY=1;exitDx=0;exitDy=0;exitPerimeter=0;" parent="1" source="_l6eRDVre9Wd-PLUxZ_N-240" edge="1">
          <mxGeometry width="50" height="50" relative="1" as="geometry">
            <mxPoint x="619" y="573" as="sourcePoint" />
            <mxPoint x="619" y="593" as="targetPoint" />
          </mxGeometry>
        </mxCell>
        <mxCell id="_l6eRDVre9Wd-PLUxZ_N-278" value="" style="rounded=0;whiteSpace=wrap;html=1;strokeColor=#000000;strokeWidth=1;" parent="1" vertex="1">
          <mxGeometry x="720" y="523" width="40" height="10" as="geometry" />
        </mxCell>
        <mxCell id="_l6eRDVre9Wd-PLUxZ_N-279" value="" style="endArrow=classic;html=1;exitX=0.5;exitY=1;exitDx=0;exitDy=0;" parent="1" source="_l6eRDVre9Wd-PLUxZ_N-278" edge="1">
          <mxGeometry width="50" height="50" relative="1" as="geometry">
            <mxPoint x="425" y="523" as="sourcePoint" />
            <mxPoint x="740" y="563" as="targetPoint" />
          </mxGeometry>
        </mxCell>
        <mxCell id="_l6eRDVre9Wd-PLUxZ_N-310" value="" style="shape=table;html=1;whiteSpace=wrap;startSize=0;container=1;collapsible=0;childLayout=tableLayout;strokeColor=#000000;strokeWidth=1;" parent="1" vertex="1">
          <mxGeometry x="325" y="503" width="40" height="160" as="geometry" />
        </mxCell>
        <mxCell id="_l6eRDVre9Wd-PLUxZ_N-311" style="shape=partialRectangle;html=1;whiteSpace=wrap;collapsible=0;dropTarget=0;pointerEvents=0;fillColor=none;top=0;left=0;bottom=0;right=0;points=[[0,0.5],[1,0.5]];portConstraint=eastwest;" parent="_l6eRDVre9Wd-PLUxZ_N-310" vertex="1">
          <mxGeometry width="40" height="11" as="geometry" />
        </mxCell>
        <mxCell id="_l6eRDVre9Wd-PLUxZ_N-312" style="shape=partialRectangle;html=1;whiteSpace=wrap;connectable=0;fillColor=none;top=0;left=0;bottom=0;right=0;overflow=hidden;" parent="_l6eRDVre9Wd-PLUxZ_N-311" vertex="1">
          <mxGeometry width="40" height="11" as="geometry" />
        </mxCell>
        <mxCell id="_l6eRDVre9Wd-PLUxZ_N-313" style="shape=partialRectangle;html=1;whiteSpace=wrap;collapsible=0;dropTarget=0;pointerEvents=0;fillColor=none;top=0;left=0;bottom=0;right=0;points=[[0,0.5],[1,0.5]];portConstraint=eastwest;" parent="_l6eRDVre9Wd-PLUxZ_N-310" vertex="1">
          <mxGeometry y="11" width="40" height="10" as="geometry" />
        </mxCell>
        <mxCell id="_l6eRDVre9Wd-PLUxZ_N-314" style="shape=partialRectangle;html=1;whiteSpace=wrap;connectable=0;fillColor=none;top=0;left=0;bottom=0;right=0;overflow=hidden;" parent="_l6eRDVre9Wd-PLUxZ_N-313" vertex="1">
          <mxGeometry width="40" height="10" as="geometry" />
        </mxCell>
        <mxCell id="_l6eRDVre9Wd-PLUxZ_N-315" style="shape=partialRectangle;html=1;whiteSpace=wrap;collapsible=0;dropTarget=0;pointerEvents=0;fillColor=none;top=0;left=0;bottom=0;right=0;points=[[0,0.5],[1,0.5]];portConstraint=eastwest;" parent="_l6eRDVre9Wd-PLUxZ_N-310" vertex="1">
          <mxGeometry y="21" width="40" height="11" as="geometry" />
        </mxCell>
        <mxCell id="_l6eRDVre9Wd-PLUxZ_N-316" style="shape=partialRectangle;html=1;whiteSpace=wrap;connectable=0;fillColor=none;top=0;left=0;bottom=0;right=0;overflow=hidden;" parent="_l6eRDVre9Wd-PLUxZ_N-315" vertex="1">
          <mxGeometry width="40" height="11" as="geometry" />
        </mxCell>
        <mxCell id="_l6eRDVre9Wd-PLUxZ_N-317" style="shape=partialRectangle;html=1;whiteSpace=wrap;collapsible=0;dropTarget=0;pointerEvents=0;fillColor=none;top=0;left=0;bottom=0;right=0;points=[[0,0.5],[1,0.5]];portConstraint=eastwest;" parent="_l6eRDVre9Wd-PLUxZ_N-310" vertex="1">
          <mxGeometry y="32" width="40" height="11" as="geometry" />
        </mxCell>
        <mxCell id="_l6eRDVre9Wd-PLUxZ_N-318" style="shape=partialRectangle;html=1;whiteSpace=wrap;connectable=0;fillColor=none;top=0;left=0;bottom=0;right=0;overflow=hidden;" parent="_l6eRDVre9Wd-PLUxZ_N-317" vertex="1">
          <mxGeometry width="40" height="11" as="geometry" />
        </mxCell>
        <mxCell id="_l6eRDVre9Wd-PLUxZ_N-319" style="shape=partialRectangle;html=1;whiteSpace=wrap;collapsible=0;dropTarget=0;pointerEvents=0;fillColor=none;top=0;left=0;bottom=0;right=0;points=[[0,0.5],[1,0.5]];portConstraint=eastwest;" parent="_l6eRDVre9Wd-PLUxZ_N-310" vertex="1">
          <mxGeometry y="43" width="40" height="11" as="geometry" />
        </mxCell>
        <mxCell id="_l6eRDVre9Wd-PLUxZ_N-320" style="shape=partialRectangle;html=1;whiteSpace=wrap;connectable=0;fillColor=none;top=0;left=0;bottom=0;right=0;overflow=hidden;" parent="_l6eRDVre9Wd-PLUxZ_N-319" vertex="1">
          <mxGeometry width="40" height="11" as="geometry" />
        </mxCell>
        <mxCell id="_l6eRDVre9Wd-PLUxZ_N-321" style="shape=partialRectangle;html=1;whiteSpace=wrap;collapsible=0;dropTarget=0;pointerEvents=0;fillColor=none;top=0;left=0;bottom=0;right=0;points=[[0,0.5],[1,0.5]];portConstraint=eastwest;" parent="_l6eRDVre9Wd-PLUxZ_N-310" vertex="1">
          <mxGeometry y="54" width="40" height="10" as="geometry" />
        </mxCell>
        <mxCell id="_l6eRDVre9Wd-PLUxZ_N-322" style="shape=partialRectangle;html=1;whiteSpace=wrap;connectable=0;fillColor=none;top=0;left=0;bottom=0;right=0;overflow=hidden;" parent="_l6eRDVre9Wd-PLUxZ_N-321" vertex="1">
          <mxGeometry width="40" height="10" as="geometry" />
        </mxCell>
        <mxCell id="_l6eRDVre9Wd-PLUxZ_N-323" style="shape=partialRectangle;html=1;whiteSpace=wrap;collapsible=0;dropTarget=0;pointerEvents=0;fillColor=none;top=0;left=0;bottom=0;right=0;points=[[0,0.5],[1,0.5]];portConstraint=eastwest;" parent="_l6eRDVre9Wd-PLUxZ_N-310" vertex="1">
          <mxGeometry y="64" width="40" height="12" as="geometry" />
        </mxCell>
        <mxCell id="_l6eRDVre9Wd-PLUxZ_N-324" style="shape=partialRectangle;html=1;whiteSpace=wrap;connectable=0;fillColor=none;top=0;left=0;bottom=0;right=0;overflow=hidden;" parent="_l6eRDVre9Wd-PLUxZ_N-323" vertex="1">
          <mxGeometry width="40" height="12" as="geometry" />
        </mxCell>
        <mxCell id="_l6eRDVre9Wd-PLUxZ_N-325" style="shape=partialRectangle;html=1;whiteSpace=wrap;collapsible=0;dropTarget=0;pointerEvents=0;fillColor=none;top=0;left=0;bottom=0;right=0;points=[[0,0.5],[1,0.5]];portConstraint=eastwest;" parent="_l6eRDVre9Wd-PLUxZ_N-310" vertex="1">
          <mxGeometry y="76" width="40" height="10" as="geometry" />
        </mxCell>
        <mxCell id="_l6eRDVre9Wd-PLUxZ_N-326" style="shape=partialRectangle;html=1;whiteSpace=wrap;connectable=0;fillColor=none;top=0;left=0;bottom=0;right=0;overflow=hidden;" parent="_l6eRDVre9Wd-PLUxZ_N-325" vertex="1">
          <mxGeometry width="40" height="10" as="geometry" />
        </mxCell>
        <mxCell id="_l6eRDVre9Wd-PLUxZ_N-327" style="shape=partialRectangle;html=1;whiteSpace=wrap;collapsible=0;dropTarget=0;pointerEvents=0;fillColor=none;top=0;left=0;bottom=0;right=0;points=[[0,0.5],[1,0.5]];portConstraint=eastwest;" parent="_l6eRDVre9Wd-PLUxZ_N-310" vertex="1">
          <mxGeometry y="86" width="40" height="11" as="geometry" />
        </mxCell>
        <mxCell id="_l6eRDVre9Wd-PLUxZ_N-328" style="shape=partialRectangle;html=1;whiteSpace=wrap;connectable=0;fillColor=none;top=0;left=0;bottom=0;right=0;overflow=hidden;" parent="_l6eRDVre9Wd-PLUxZ_N-327" vertex="1">
          <mxGeometry width="40" height="11" as="geometry" />
        </mxCell>
        <mxCell id="_l6eRDVre9Wd-PLUxZ_N-329" style="shape=partialRectangle;html=1;whiteSpace=wrap;collapsible=0;dropTarget=0;pointerEvents=0;fillColor=none;top=0;left=0;bottom=0;right=0;points=[[0,0.5],[1,0.5]];portConstraint=eastwest;" parent="_l6eRDVre9Wd-PLUxZ_N-310" vertex="1">
          <mxGeometry y="97" width="40" height="11" as="geometry" />
        </mxCell>
        <mxCell id="_l6eRDVre9Wd-PLUxZ_N-330" style="shape=partialRectangle;html=1;whiteSpace=wrap;connectable=0;fillColor=none;top=0;left=0;bottom=0;right=0;overflow=hidden;" parent="_l6eRDVre9Wd-PLUxZ_N-329" vertex="1">
          <mxGeometry width="40" height="11" as="geometry" />
        </mxCell>
        <mxCell id="_l6eRDVre9Wd-PLUxZ_N-331" style="shape=partialRectangle;html=1;whiteSpace=wrap;collapsible=0;dropTarget=0;pointerEvents=0;fillColor=none;top=0;left=0;bottom=0;right=0;points=[[0,0.5],[1,0.5]];portConstraint=eastwest;" parent="_l6eRDVre9Wd-PLUxZ_N-310" vertex="1">
          <mxGeometry y="108" width="40" height="10" as="geometry" />
        </mxCell>
        <mxCell id="_l6eRDVre9Wd-PLUxZ_N-332" style="shape=partialRectangle;html=1;whiteSpace=wrap;connectable=0;fillColor=none;top=0;left=0;bottom=0;right=0;overflow=hidden;" parent="_l6eRDVre9Wd-PLUxZ_N-331" vertex="1">
          <mxGeometry width="40" height="10" as="geometry" />
        </mxCell>
        <mxCell id="_l6eRDVre9Wd-PLUxZ_N-333" style="shape=partialRectangle;html=1;whiteSpace=wrap;collapsible=0;dropTarget=0;pointerEvents=0;fillColor=none;top=0;left=0;bottom=0;right=0;points=[[0,0.5],[1,0.5]];portConstraint=eastwest;" parent="_l6eRDVre9Wd-PLUxZ_N-310" vertex="1">
          <mxGeometry y="118" width="40" height="10" as="geometry" />
        </mxCell>
        <mxCell id="_l6eRDVre9Wd-PLUxZ_N-334" style="shape=partialRectangle;html=1;whiteSpace=wrap;connectable=0;fillColor=none;top=0;left=0;bottom=0;right=0;overflow=hidden;" parent="_l6eRDVre9Wd-PLUxZ_N-333" vertex="1">
          <mxGeometry width="40" height="10" as="geometry" />
        </mxCell>
        <mxCell id="_l6eRDVre9Wd-PLUxZ_N-335" value="" style="shape=partialRectangle;html=1;whiteSpace=wrap;collapsible=0;dropTarget=0;pointerEvents=0;fillColor=none;top=0;left=0;bottom=0;right=0;points=[[0,0.5],[1,0.5]];portConstraint=eastwest;" parent="_l6eRDVre9Wd-PLUxZ_N-310" vertex="1">
          <mxGeometry y="128" width="40" height="11" as="geometry" />
        </mxCell>
        <mxCell id="_l6eRDVre9Wd-PLUxZ_N-336" value="" style="shape=partialRectangle;html=1;whiteSpace=wrap;connectable=0;fillColor=none;top=0;left=0;bottom=0;right=0;overflow=hidden;" parent="_l6eRDVre9Wd-PLUxZ_N-335" vertex="1">
          <mxGeometry width="40" height="11" as="geometry" />
        </mxCell>
        <mxCell id="_l6eRDVre9Wd-PLUxZ_N-337" value="" style="shape=partialRectangle;html=1;whiteSpace=wrap;collapsible=0;dropTarget=0;pointerEvents=0;fillColor=none;top=0;left=0;bottom=0;right=0;points=[[0,0.5],[1,0.5]];portConstraint=eastwest;" parent="_l6eRDVre9Wd-PLUxZ_N-310" vertex="1">
          <mxGeometry y="139" width="40" height="10" as="geometry" />
        </mxCell>
        <mxCell id="_l6eRDVre9Wd-PLUxZ_N-338" value="" style="shape=partialRectangle;html=1;whiteSpace=wrap;connectable=0;fillColor=none;top=0;left=0;bottom=0;right=0;overflow=hidden;" parent="_l6eRDVre9Wd-PLUxZ_N-337" vertex="1">
          <mxGeometry width="40" height="10" as="geometry" />
        </mxCell>
        <mxCell id="_l6eRDVre9Wd-PLUxZ_N-339" value="" style="shape=partialRectangle;html=1;whiteSpace=wrap;collapsible=0;dropTarget=0;pointerEvents=0;fillColor=none;top=0;left=0;bottom=0;right=0;points=[[0,0.5],[1,0.5]];portConstraint=eastwest;" parent="_l6eRDVre9Wd-PLUxZ_N-310" vertex="1">
          <mxGeometry y="149" width="40" height="11" as="geometry" />
        </mxCell>
        <mxCell id="_l6eRDVre9Wd-PLUxZ_N-340" value="" style="shape=partialRectangle;html=1;whiteSpace=wrap;connectable=0;fillColor=none;top=0;left=0;bottom=0;right=0;overflow=hidden;" parent="_l6eRDVre9Wd-PLUxZ_N-339" vertex="1">
          <mxGeometry width="40" height="11" as="geometry" />
        </mxCell>
        <mxCell id="_l6eRDVre9Wd-PLUxZ_N-341" value="" style="shape=table;html=1;whiteSpace=wrap;startSize=0;container=1;collapsible=0;childLayout=tableLayout;strokeColor=#000000;strokeWidth=1;" parent="1" vertex="1">
          <mxGeometry x="475" y="599" width="40" height="64" as="geometry" />
        </mxCell>
        <mxCell id="_l6eRDVre9Wd-PLUxZ_N-342" style="shape=partialRectangle;html=1;whiteSpace=wrap;collapsible=0;dropTarget=0;pointerEvents=0;fillColor=none;top=0;left=0;bottom=0;right=0;points=[[0,0.5],[1,0.5]];portConstraint=eastwest;" parent="_l6eRDVre9Wd-PLUxZ_N-341" vertex="1">
          <mxGeometry width="40" height="11" as="geometry" />
        </mxCell>
        <mxCell id="_l6eRDVre9Wd-PLUxZ_N-343" style="shape=partialRectangle;html=1;whiteSpace=wrap;connectable=0;fillColor=none;top=0;left=0;bottom=0;right=0;overflow=hidden;" parent="_l6eRDVre9Wd-PLUxZ_N-342" vertex="1">
          <mxGeometry width="40" height="11" as="geometry" />
        </mxCell>
        <mxCell id="_l6eRDVre9Wd-PLUxZ_N-344" style="shape=partialRectangle;html=1;whiteSpace=wrap;collapsible=0;dropTarget=0;pointerEvents=0;fillColor=none;top=0;left=0;bottom=0;right=0;points=[[0,0.5],[1,0.5]];portConstraint=eastwest;" parent="_l6eRDVre9Wd-PLUxZ_N-341" vertex="1">
          <mxGeometry y="11" width="40" height="10" as="geometry" />
        </mxCell>
        <mxCell id="_l6eRDVre9Wd-PLUxZ_N-345" style="shape=partialRectangle;html=1;whiteSpace=wrap;connectable=0;fillColor=none;top=0;left=0;bottom=0;right=0;overflow=hidden;" parent="_l6eRDVre9Wd-PLUxZ_N-344" vertex="1">
          <mxGeometry width="40" height="10" as="geometry" />
        </mxCell>
        <mxCell id="_l6eRDVre9Wd-PLUxZ_N-346" style="shape=partialRectangle;html=1;whiteSpace=wrap;collapsible=0;dropTarget=0;pointerEvents=0;fillColor=none;top=0;left=0;bottom=0;right=0;points=[[0,0.5],[1,0.5]];portConstraint=eastwest;" parent="_l6eRDVre9Wd-PLUxZ_N-341" vertex="1">
          <mxGeometry y="21" width="40" height="11" as="geometry" />
        </mxCell>
        <mxCell id="_l6eRDVre9Wd-PLUxZ_N-347" style="shape=partialRectangle;html=1;whiteSpace=wrap;connectable=0;fillColor=none;top=0;left=0;bottom=0;right=0;overflow=hidden;" parent="_l6eRDVre9Wd-PLUxZ_N-346" vertex="1">
          <mxGeometry width="40" height="11" as="geometry" />
        </mxCell>
        <mxCell id="_l6eRDVre9Wd-PLUxZ_N-348" style="shape=partialRectangle;html=1;whiteSpace=wrap;collapsible=0;dropTarget=0;pointerEvents=0;fillColor=none;top=0;left=0;bottom=0;right=0;points=[[0,0.5],[1,0.5]];portConstraint=eastwest;" parent="_l6eRDVre9Wd-PLUxZ_N-341" vertex="1">
          <mxGeometry y="32" width="40" height="11" as="geometry" />
        </mxCell>
        <mxCell id="_l6eRDVre9Wd-PLUxZ_N-349" style="shape=partialRectangle;html=1;whiteSpace=wrap;connectable=0;fillColor=none;top=0;left=0;bottom=0;right=0;overflow=hidden;" parent="_l6eRDVre9Wd-PLUxZ_N-348" vertex="1">
          <mxGeometry width="40" height="11" as="geometry" />
        </mxCell>
        <mxCell id="_l6eRDVre9Wd-PLUxZ_N-350" style="shape=partialRectangle;html=1;whiteSpace=wrap;collapsible=0;dropTarget=0;pointerEvents=0;fillColor=none;top=0;left=0;bottom=0;right=0;points=[[0,0.5],[1,0.5]];portConstraint=eastwest;" parent="_l6eRDVre9Wd-PLUxZ_N-341" vertex="1">
          <mxGeometry y="43" width="40" height="11" as="geometry" />
        </mxCell>
        <mxCell id="_l6eRDVre9Wd-PLUxZ_N-351" style="shape=partialRectangle;html=1;whiteSpace=wrap;connectable=0;fillColor=none;top=0;left=0;bottom=0;right=0;overflow=hidden;" parent="_l6eRDVre9Wd-PLUxZ_N-350" vertex="1">
          <mxGeometry width="40" height="11" as="geometry" />
        </mxCell>
        <mxCell id="_l6eRDVre9Wd-PLUxZ_N-352" style="shape=partialRectangle;html=1;whiteSpace=wrap;collapsible=0;dropTarget=0;pointerEvents=0;fillColor=none;top=0;left=0;bottom=0;right=0;points=[[0,0.5],[1,0.5]];portConstraint=eastwest;" parent="_l6eRDVre9Wd-PLUxZ_N-341" vertex="1">
          <mxGeometry y="54" width="40" height="10" as="geometry" />
        </mxCell>
        <mxCell id="_l6eRDVre9Wd-PLUxZ_N-353" style="shape=partialRectangle;html=1;whiteSpace=wrap;connectable=0;fillColor=none;top=0;left=0;bottom=0;right=0;overflow=hidden;" parent="_l6eRDVre9Wd-PLUxZ_N-352" vertex="1">
          <mxGeometry width="40" height="10" as="geometry" />
        </mxCell>
        <mxCell id="_l6eRDVre9Wd-PLUxZ_N-356" value="" style="curved=1;endArrow=classic;html=1;entryX=0.5;entryY=0;entryDx=0;entryDy=0;" parent="1" target="_l6eRDVre9Wd-PLUxZ_N-240" edge="1">
          <mxGeometry width="50" height="50" relative="1" as="geometry">
            <mxPoint x="542.5" y="656" as="sourcePoint" />
            <mxPoint x="592.5" y="606" as="targetPoint" />
            <Array as="points">
              <mxPoint x="592.5" y="656" />
              <mxPoint x="543" y="523" />
            </Array>
          </mxGeometry>
        </mxCell>
        <mxCell id="_l6eRDVre9Wd-PLUxZ_N-363" value="" style="curved=1;endArrow=classic;html=1;exitX=0;exitY=0.75;exitDx=0;exitDy=0;entryX=0.5;entryY=0;entryDx=0;entryDy=0;" parent="1" source="_l6eRDVre9Wd-PLUxZ_N-264" target="_l6eRDVre9Wd-PLUxZ_N-278" edge="1">
          <mxGeometry width="50" height="50" relative="1" as="geometry">
            <mxPoint x="425" y="403" as="sourcePoint" />
            <mxPoint x="475" y="353" as="targetPoint" />
            <Array as="points">
              <mxPoint x="695" y="656" />
              <mxPoint x="665" y="483" />
            </Array>
          </mxGeometry>
        </mxCell>
        <mxCell id="_l6eRDVre9Wd-PLUxZ_N-364" value="p1" style="text;html=1;align=center;verticalAlign=middle;resizable=0;points=[];autosize=1;" parent="1" vertex="1">
          <mxGeometry x="470" y="673" width="30" height="20" as="geometry" />
        </mxCell>
        <mxCell id="_l6eRDVre9Wd-PLUxZ_N-365" value="p2" style="text;html=1;align=center;verticalAlign=middle;resizable=0;points=[];autosize=1;" parent="1" vertex="1">
          <mxGeometry x="600" y="673" width="30" height="20" as="geometry" />
        </mxCell>
        <mxCell id="_l6eRDVre9Wd-PLUxZ_N-366" value="p3" style="text;html=1;align=center;verticalAlign=middle;resizable=0;points=[];autosize=1;" parent="1" vertex="1">
          <mxGeometry x="770" y="593" width="30" height="20" as="geometry" />
        </mxCell>
        <mxCell id="_l6eRDVre9Wd-PLUxZ_N-367" value="已完成的任务" style="text;html=1;align=center;verticalAlign=middle;resizable=0;points=[];autosize=1;" parent="1" vertex="1">
          <mxGeometry x="690" y="740" width="90" height="20" as="geometry" />
        </mxCell>
        <mxCell id="_l6eRDVre9Wd-PLUxZ_N-368" value="" style="triangle;whiteSpace=wrap;html=1;strokeColor=#000000;strokeWidth=1;" parent="1" vertex="1">
          <mxGeometry x="455" y="648" width="20" height="10" as="geometry" />
        </mxCell>
        <mxCell id="_l6eRDVre9Wd-PLUxZ_N-370" value="" style="triangle;whiteSpace=wrap;html=1;strokeColor=#000000;strokeWidth=1;" parent="1" vertex="1">
          <mxGeometry x="455" y="648" width="20" height="10" as="geometry" />
        </mxCell>
        <mxCell id="_l6eRDVre9Wd-PLUxZ_N-371" value="" style="triangle;whiteSpace=wrap;html=1;strokeColor=#000000;strokeWidth=1;" parent="1" vertex="1">
          <mxGeometry x="455" y="613" width="20" height="10" as="geometry" />
        </mxCell>
        <mxCell id="_l6eRDVre9Wd-PLUxZ_N-377" value="" style="triangle;whiteSpace=wrap;html=1;strokeColor=#000000;strokeWidth=1;" parent="1" vertex="1">
          <mxGeometry x="580" y="643" width="20" height="10" as="geometry" />
        </mxCell>
        <mxCell id="_l6eRDVre9Wd-PLUxZ_N-378" value="" style="triangle;whiteSpace=wrap;html=1;strokeColor=#000000;strokeWidth=1;" parent="1" vertex="1">
          <mxGeometry x="580" y="613" width="20" height="10" as="geometry" />
        </mxCell>
        <mxCell id="_l6eRDVre9Wd-PLUxZ_N-379" value="" style="triangle;whiteSpace=wrap;html=1;strokeColor=#000000;strokeWidth=1;" parent="1" vertex="1">
          <mxGeometry x="700" y="638" width="20" height="10" as="geometry" />
        </mxCell>
        <mxCell id="_l6eRDVre9Wd-PLUxZ_N-384" value="" style="triangle;whiteSpace=wrap;html=1;strokeColor=#000000;strokeWidth=1;" parent="1" vertex="1">
          <mxGeometry x="700" y="603" width="20" height="10" as="geometry" />
        </mxCell>
        <mxCell id="_l6eRDVre9Wd-PLUxZ_N-385" value="E1" style="text;html=1;align=center;verticalAlign=middle;resizable=0;points=[];autosize=1;" parent="1" vertex="1">
          <mxGeometry x="430" y="643" width="30" height="20" as="geometry" />
        </mxCell>
        <mxCell id="_l6eRDVre9Wd-PLUxZ_N-386" value="E2" style="text;html=1;align=center;verticalAlign=middle;resizable=0;points=[];autosize=1;" parent="1" vertex="1">
          <mxGeometry x="430" y="603" width="30" height="20" as="geometry" />
        </mxCell>
        <mxCell id="_l6eRDVre9Wd-PLUxZ_N-387" value="s1" style="text;html=1;align=center;verticalAlign=middle;resizable=0;points=[];autosize=1;" parent="1" vertex="1">
          <mxGeometry x="370" y="633" width="30" height="20" as="geometry" />
        </mxCell>
        <mxCell id="_l6eRDVre9Wd-PLUxZ_N-388" value="s2" style="text;html=1;align=center;verticalAlign=middle;resizable=0;points=[];autosize=1;" parent="1" vertex="1">
          <mxGeometry x="510" y="633" width="30" height="20" as="geometry" />
        </mxCell>
        <mxCell id="_l6eRDVre9Wd-PLUxZ_N-389" value="s3" style="text;html=1;align=center;verticalAlign=middle;resizable=0;points=[];autosize=1;" parent="1" vertex="1">
          <mxGeometry x="640" y="633" width="30" height="20" as="geometry" />
        </mxCell>
        <mxCell id="_l6eRDVre9Wd-PLUxZ_N-390" value="s4" style="text;html=1;align=center;verticalAlign=middle;resizable=0;points=[];autosize=1;" parent="1" vertex="1">
          <mxGeometry x="760" y="633" width="30" height="20" as="geometry" />
        </mxCell>
      </root>
    </mxGraphModel>
  </diagram>
</mxfile>
